# xmcd
#
# Track frame offsets:
# 150
# 21251
# 35453
# 53666
# 71345
# 88338
# 104344
# 120593
# 143643
# 161216
# 178804
# 200396
# 216011
# 235565
# 254919
# 273566
# 291194
# 307486
#
# Disc length: 4308 seconds
#
#
# Revision: 1
# Processed by: cddbd v1.5.2PL0 Copyright (c) Steve Scherf et al.
# Submitted via: FreeRIP 2.951 
#
DISCID=1610d212
DTITLE=As Melhores do forró acustico - forró
DYEAR=2003
DGENRE=Country
TTITLE0=Limão com Mel - Toma conta de mim
TTITLE1=Magnificus - Jogado na Rua
TTITLE2=Noda de Caju - Petalas de Neon
TTITLE3=Virus da Paixão - Porque te amo
TTITLE4=Cascavel - quando vi voce partir
TTITLE5=Cavaleiros do forro - Alô
TTITLE6=Collo de Menina - Grande historia
TTITLE7=Limão com Mel - Vivendo de Solidão
TTITLE8=Cavaleiros do forró - Avise a ela
TTITLE9=Gatinha Manhosa - Sou ou não sou
TTITLE10=Noda de Caju - Magia Branca
TTITLE11=Cascavel - Calma coração
TTITLE12=Boca de moça - Amor eterno
TTITLE13=Gatinha Manhosa - Com voce no pensamento
TTITLE14=Cascavel - Tá na cara
TTITLE15=Vírus da Paixão - Longa espera
TTITLE16=Cavaleiros do Forró - Faz amor comigo
TTITLE17=Collo de menina - Por esse amor
EXTD=YEAR: 2003
EXTT0=
EXTT1=
EXTT2=
EXTT3=
EXTT4=
EXTT5=
EXTT6=
EXTT7=
EXTT8=
EXTT9=
EXTT10=
EXTT11=
EXTT12=
EXTT13=
EXTT14=
EXTT15=
EXTT16=
EXTT17=
PLAYORDER=
